<?xml version="1.0" standalone="no"?>
<!DOCTYPE svg PUBLIC "-//W3C//DTD SVG 20010904//EN"
 "http://www.w3.org/TR/2001/REC-SVG-20010904/DTD/svg10.dtd">
<svg version="1.0" xmlns="http://www.w3.org/2000/svg"
 width="1484.000000pt" height="142.000000pt" viewBox="0 0 1484.000000 142.000000"
 preserveAspectRatio="xMidYMid meet">
<metadata>
Created by potrace 1.16, written by Peter Selinger 2001-2019
</metadata>
<g transform="translate(0.000000,142.000000) scale(0.100000,-0.100000)"
fill="#000000" stroke="none">
<path d="M0 710 l0 -710 7420 0 7420 0 0 710 0 710 -7420 0 -7420 0 0 -710z
m3557 42 c46 -3 52 -1 59 20 7 20 9 18 14 -17 l5 -40 108 -3 c86 -2 107 -6
107 -17 0 -12 -21 -15 -115 -15 l-115 0 -1 -62 c0 -35 -2 -58 -5 -53 -6 14
-111 10 -129 -5 -13 -11 -15 -6 -15 28 0 23 -4 44 -10 47 -5 3 -10 -3 -10 -14
0 -12 -4 -21 -9 -21 -13 0 -25 83 -17 115 8 31 26 33 27 3 0 -16 5 -11 14 17
30 85 29 83 35 50 5 -28 8 -30 57 -33z m-2794 -29 c3 -39 1 -88 -4 -110 -5
-21 -9 -51 -9 -68 l0 -30 -64 3 -64 4 -11 58 c-7 35 -9 90 -5 137 l7 78 72 0
73 0 5 -72z m1387 -59 c0 -106 -3 -133 -12 -127 -7 4 -164 10 -348 13 -319 5
-335 6 -332 24 2 11 -1 15 -7 11 -8 -4 -11 24 -11 89 l0 95 347 3 c266 2 347
6 351 16 9 29 12 4 12 -124z m7040 111 c4832 -21 4932 -23 5119 -61 109 -23
116 -29 51 -48 -30 -9 -84 -20 -120 -26 -136 -20 -1088 -30 -4355 -45 -1853
-8 -3888 -18 -4521 -21 l-1151 -6 -7 32 c-8 41 -8 94 0 152 l6 44 847 -3 c465
-1 2324 -9 4131 -18z m-8315 -5 c57 0 63 -2 69 -22 8 -30 8 -84 0 -141 l-6
-45 -63 -4 c-71 -3 -83 4 -92 57 -5 29 -2 35 12 35 15 0 17 9 13 71 -2 39 -2
66 0 60 2 -6 29 -11 67 -11z m3315 -85 l0 -95 -30 0 c-16 0 -30 -4 -30 -10 0
-5 11 -10 25 -10 16 0 25 -6 25 -15 0 -10 -10 -15 -29 -15 -27 0 -29 3 -36 58
-8 53 -9 55 -19 30 -7 -22 -17 -28 -40 -29 -31 -2 -31 -2 -3 -6 15 -3 27 -11
27 -19 0 -12 -13 -14 -67 -12 l-67 3 -11 43 c-10 43 -25 48 -25 7 0 -14 -6
-21 -19 -21 -15 0 -21 10 -26 44 -9 59 2 102 26 102 12 0 21 -11 28 -32 8 -29
9 -30 10 -8 3 63 6 65 86 62 74 -4 75 -4 75 -30 0 -15 5 -34 10 -42 7 -11 10
-6 10 22 0 56 8 68 46 68 l34 0 0 -95z m-3656 34 c4 -29 4 -76 0 -106 -6 -53
-7 -54 -38 -51 l-31 3 -3 89 c-2 49 -1 95 2 103 3 7 18 13 34 13 28 0 30 -3
36 -51z m2802 11 l69 -5 0 -52 c-1 -29 -3 -54 -5 -56 -3 -3 -37 -6 -76 -9
l-70 -3 -1 85 c-1 49 2 77 6 65 7 -17 20 -21 77 -25z"/>
</g>
</svg>
