<?xml version="1.0" standalone="no"?>
<!DOCTYPE svg PUBLIC "-//W3C//DTD SVG 20010904//EN"
 "http://www.w3.org/TR/2001/REC-SVG-20010904/DTD/svg10.dtd">
<svg version="1.0" xmlns="http://www.w3.org/2000/svg"
 width="1680.000000pt" height="1050.000000pt" viewBox="0 0 1680.000000 1050.000000"
 preserveAspectRatio="xMidYMid meet">
<metadata>
Created by potrace 1.16, written by Peter Selinger 2001-2019
</metadata>
<g transform="translate(0.000000,1050.000000) scale(0.100000,-0.100000)"
fill="#000000" stroke="none">
<path d="M0 5250 l0 -5250 8400 0 8400 0 0 5250 0 5250 -8400 0 -8400 0 0
-5250z m7309 4799 c-6 -13 -20 -32 -31 -43 -32 -34 -165 -242 -187 -291 -7
-16 -19 -43 -27 -60 -17 -38 -38 -132 -36 -165 0 -14 2 -45 3 -70 1 -25 7 -48
13 -52 8 -6 7 -11 -3 -17 -11 -7 -12 -13 -4 -23 6 -7 16 -33 22 -58 12 -44 15
-55 42 -115 7 -16 12 -34 10 -39 -1 -4 4 -15 11 -23 7 -8 13 -21 15 -29 7 -33
9 -40 14 -49 3 -5 5 -25 3 -43 -1 -18 2 -35 7 -38 5 -3 9 -17 9 -31 0 -19 4
-24 16 -19 11 4 14 1 9 -13 -5 -15 -1 -18 20 -14 13 3 33 2 42 -2 10 -5 24 -7
31 -6 6 1 12 -2 12 -6 0 -4 3 -19 7 -32 5 -21 4 -23 -17 -18 -17 4 -20 3 -11
-6 17 -17 13 -41 -11 -67 -13 -14 -22 -29 -20 -35 2 -5 0 -7 -4 -2 -4 4 -16 0
-26 -10 -21 -19 -25 -41 -4 -24 15 13 49 4 40 -10 -3 -5 -10 -7 -15 -4 -5 4
-9 2 -9 -2 0 -5 -21 -22 -47 -39 -87 -54 -237 -180 -322 -269 -240 -255 -395
-538 -620 -1135 -38 -102 -81 -216 -96 -255 -15 -38 -62 -171 -105 -295 -120
-345 -136 -383 -226 -515 -90 -133 -154 -247 -220 -393 -24 -53 -44 -91 -44
-84 0 22 144 407 234 626 134 324 387 1008 487 1314 248 760 226 680 239 852
25 344 75 648 129 803 123 343 284 583 494 731 73 51 177 109 184 102 3 -2 -1
-15 -8 -27z m2349 -82 c233 -170 443 -483 512 -761 16 -65 39 -196 50 -290 54
-445 39 -384 259 -1042 198 -597 388 -1118 601 -1649 113 -282 180 -462 180
-480 0 -5 -32 51 -71 125 -40 74 -108 189 -153 255 -88 128 -109 175 -211 470
-70 201 -252 688 -322 865 -69 172 -223 483 -290 585 -221 335 -527 579 -834
665 l-74 20 53 -3 c54 -4 68 8 38 33 -8 6 -12 19 -9 27 4 11 2 14 -5 9 -8 -4
-12 0 -12 11 0 10 -7 28 -15 41 -14 20 -14 21 0 16 8 -3 15 -1 15 5 0 6 -4 11
-10 11 -5 0 -10 4 -10 10 0 5 7 7 15 4 18 -7 20 7 3 26 -7 8 -9 11 -4 7 5 -4
15 -2 22 4 8 6 37 11 64 11 31 0 57 6 65 15 8 8 15 11 15 7 0 -3 6 -1 14 5 8
6 12 26 10 46 -1 19 1 35 6 35 4 0 10 18 14 40 3 22 10 40 16 40 5 0 12 21 16
46 4 26 15 54 25 62 11 9 19 24 19 34 0 10 5 18 11 18 5 0 7 5 3 11 -3 6 -2
14 3 18 5 3 22 23 37 44 22 29 33 36 49 31 16 -5 19 -3 14 10 -4 10 -1 16 8
16 8 0 15 5 15 10 0 6 9 10 21 10 11 0 18 4 14 9 -3 6 2 14 11 19 14 8 14 15
-1 78 -9 38 -25 87 -35 109 -10 22 -27 64 -39 93 -11 30 -33 70 -49 90 -15 20
-34 50 -42 66 -8 16 -44 56 -80 89 -56 52 -59 57 -25 37 22 -13 64 -41 93 -63z
m-1048 -99 c0 -7 5 -62 10 -123 5 -60 10 -325 12 -587 1 -263 5 -483 8 -488 4
-7 11 -6 20 5 8 10 9 15 1 15 -21 0 -11 35 20 68 16 17 28 36 24 41 -3 5 0 13
6 16 6 4 13 -2 16 -14 6 -22 23 -29 23 -9 0 8 4 8 13 -2 17 -19 39 -70 29 -68
-13 2 -72 -24 -72 -32 0 -5 19 -1 43 10 23 10 65 21 92 24 l50 6 -75 -30 c-41
-17 -92 -36 -113 -42 -22 -6 -53 -25 -70 -41 -28 -26 -32 -27 -43 -13 -8 12
-9 29 -3 54 4 20 6 168 4 327 -7 412 -8 437 -24 464 -11 19 -12 62 -6 214 3
104 9 195 12 203 6 17 23 18 23 2z m-346 -90 c10 -114 9 -318 -2 -331 -26 -33
-31 -791 -6 -817 3 -3 2 63 -2 147 -4 97 -3 179 4 230 19 128 21 154 22 231 0
98 16 115 101 107 41 -4 74 -1 105 10 71 24 77 13 85 -159 5 -77 13 -179 19
-226 12 -99 -4 -331 -26 -367 -27 -43 -244 -43 -285 1 -19 20 -21 20 -30 4
-11 -21 -39 -24 -39 -5 0 18 -27 32 -147 78 -118 45 -137 55 -82 45 41 -7 79
2 59 14 -15 9 -4 30 15 30 16 0 30 33 16 38 -6 2 -11 8 -11 13 0 4 7 6 15 3
10 -4 15 0 15 11 0 9 5 13 10 10 6 -4 8 -10 5 -15 -3 -4 4 -6 14 -3 14 3 21
-2 26 -19 4 -12 16 -33 27 -44 10 -12 23 -34 28 -50 7 -26 14 218 13 456 -1
133 16 646 23 667 11 38 21 17 28 -59z m-1679 -1888 c-64 -127 -167 -362 -215
-490 -18 -47 -69 -182 -115 -300 -46 -118 -88 -233 -95 -255 -7 -22 -32 -85
-56 -140 -23 -56 -54 -140 -67 -187 -29 -98 -67 -188 -73 -172 -6 14 106 354
179 544 31 80 76 199 101 265 24 66 65 170 91 230 25 61 60 144 77 185 34 82
155 330 195 398 48 81 34 34 -22 -78z m1903 71 c15 -1 36 -49 46 -103 6 -32 4
-37 -9 -32 -8 4 -27 26 -41 49 -14 24 -31 49 -39 55 -12 10 -15 9 -15 -9 0
-11 4 -21 9 -21 5 0 11 -8 15 -17 3 -10 9 -24 12 -30 4 -10 -10 -13 -56 -13
-34 0 -70 -5 -82 -11 -19 -10 -20 -9 -13 33 16 96 43 111 173 99z m-348 -126
c0 -13 -116 -87 -195 -125 -222 -106 -443 -160 -543 -134 -21 6 -21 7 -5 20
17 13 17 13 1 14 -22 0 -24 18 -3 26 21 9 19 19 -7 31 l-23 10 23 12 c50 27
271 53 257 31 -3 -5 -16 -10 -29 -10 -12 0 -31 -6 -41 -14 -45 -33 153 -10
284 33 35 11 67 18 72 16 4 -3 10 -1 13 4 3 4 24 11 47 15 27 4 52 18 76 41
30 29 73 47 73 30z m636 -25 c24 -27 91 -56 147 -65 12 -2 63 -15 112 -28 105
-29 216 -47 209 -35 -3 5 7 6 23 3 27 -6 27 -6 9 9 -11 9 -30 16 -42 16 -13 0
-26 5 -29 10 -4 6 7 10 27 10 47 0 208 -29 232 -42 20 -11 20 -11 -2 -19 -26
-10 -27 -15 -5 -37 15 -15 14 -17 -8 -23 -22 -6 -23 -7 -5 -14 19 -8 19 -9 0
-16 -28 -11 -102 -10 -170 2 -70 12 -195 49 -208 61 -6 4 -17 8 -25 8 -40 0
-288 135 -320 174 -26 31 27 18 55 -14z m1681 -310 c143 -327 424 -1089 423
-1142 -1 -26 -40 63 -65 146 -13 48 -38 117 -54 154 -16 37 -50 126 -76 197
-25 72 -69 189 -97 260 -27 72 -63 167 -79 213 -16 45 -63 161 -104 257 -41
97 -75 179 -75 183 1 15 36 -59 127 -268z m-2397 115 c7 -9 10 -25 5 -42 -4
-19 -9 -23 -15 -14 -4 8 -13 10 -19 7 -6 -4 -11 -3 -11 2 0 4 -21 8 -47 7 -77
-3 -81 -4 -60 -16 9 -5 17 -15 17 -22 0 -8 -3 -8 -9 2 -11 17 -22 1 -26 -42
-2 -18 -6 -47 -10 -64 -15 -87 -14 -90 8 -100 20 -9 19 -13 -38 -72 -32 -34
-70 -64 -84 -68 -14 -3 -34 -13 -44 -21 -15 -14 -19 -14 -32 -1 -18 19 -48
237 -40 293 9 55 1 58 -95 34 -41 -10 -79 -16 -85 -14 -5 2 4 7 20 11 17 4 53
20 80 35 54 30 247 90 288 90 14 0 27 -5 29 -10 2 -7 24 -6 63 4 78 19 90 19
105 1z m820 0 c79 -17 83 -18 75 -5 -12 19 49 10 160 -22 61 -18 118 -39 128
-48 9 -9 42 -25 72 -35 30 -11 53 -20 51 -22 -1 -2 -38 6 -82 17 -50 12 -82
16 -88 10 -13 -13 -18 -48 -7 -54 4 -3 6 -25 4 -48 -10 -107 -23 -196 -33
-222 -10 -27 -11 -28 -35 -12 -13 9 -33 17 -44 19 -23 4 -141 108 -141 125 0
6 9 14 21 17 18 6 20 12 15 43 -4 21 -7 49 -7 64 0 15 -6 45 -14 67 -9 26 -10
42 -3 49 7 7 1 12 -19 15 -46 9 -125 1 -134 -14 -8 -12 -11 -12 -19 1 -15 23
-12 48 8 59 21 13 14 13 92 -4z m-339 -40 c11 -25 25 -45 30 -45 13 0 2 -125
-13 -157 -14 -29 -76 -53 -136 -53 -44 0 -123 28 -135 46 -2 5 -8 44 -12 88
-5 56 -4 76 4 72 6 -4 11 0 11 9 0 9 7 29 15 46 13 25 18 27 30 16 7 -8 15
-25 18 -38 l4 -24 8 23 c8 25 23 29 31 8 7 -17 44 -9 44 10 0 13 25 19 58 15
6 -1 12 5 12 14 0 26 10 16 31 -30z m-471 -970 c0 -8 -6 -15 -14 -15 -10 0
-13 -10 -12 -32 5 -51 6 -54 16 -38 5 8 11 12 14 9 3 -2 1 -11 -4 -19 -7 -11
-11 -11 -24 -1 -13 11 -16 7 -21 -22 -5 -28 -11 -34 -33 -35 -15 -1 -38 -3
-52 -5 -14 -2 -31 1 -37 6 -8 6 -13 6 -13 -1 0 -6 -31 -10 -76 -11 l-75 -1 23
30 c13 16 29 29 36 29 6 1 11 4 10 9 0 4 2 16 6 27 5 11 10 26 12 33 2 6 9 12
16 12 10 0 10 -2 -1 -9 -17 -11 -5 -32 14 -24 12 4 15 -3 15 -30 0 -20 -4 -39
-10 -42 -24 -15 -7 -24 19 -11 16 9 31 13 34 9 3 -3 26 -2 51 1 44 7 45 8 52
54 5 26 9 50 10 55 1 4 2 11 3 17 0 5 8 6 18 3 11 -4 14 -3 9 5 -4 7 -2 12 3
12 6 0 11 -7 11 -15z m-537 -173 c11 -9 28 -36 39 -59 21 -47 14 -74 -24 -94
-22 -12 -38 0 -38 30 0 9 -8 11 -24 7 -15 -4 -26 -1 -29 7 -2 7 -10 0 -17 -15
-16 -33 -21 -34 -45 -8 -10 11 -22 17 -28 13 -6 -4 -8 0 -4 9 3 9 1 20 -4 25
-32 32 69 119 125 108 16 -3 39 -13 49 -23z m1870 14 c33 -15 87 -61 87 -75 0
-16 -32 -71 -41 -71 -6 0 -25 11 -42 24 -31 24 -33 24 -54 6 -13 -10 -23 -25
-23 -34 0 -21 -28 -20 -52 1 -23 20 -23 24 4 85 15 36 30 54 52 64 38 16 31
16 69 0z m-1988 -1420 c17 -9 44 -16 61 -16 50 0 68 -20 60 -66 -4 -22 -17
-52 -29 -67 l-22 -27 -84 31 c-47 16 -107 41 -135 55 -28 14 -58 23 -68 21
-10 -3 -18 -1 -18 4 0 5 9 9 20 9 11 0 17 5 15 13 -6 16 111 67 145 63 14 -2
39 -11 55 -20z m2156 -39 c39 -24 47 -33 37 -42 -15 -13 -134 -65 -150 -65 -5
0 -26 -8 -45 -17 -35 -16 -36 -16 -54 8 -10 13 -24 41 -31 63 -11 36 -10 40
11 57 15 12 39 19 70 19 25 0 53 5 61 10 19 12 40 6 101 -33z m1577 13 c-14
-23 -119 -106 -155 -123 -33 -15 -28 -25 20 -37 23 -6 58 -15 77 -21 48 -12
54 -11 40 6 -10 11 -9 18 4 30 9 9 16 13 16 9 0 -3 7 -1 15 6 12 10 28 8 82
-11 38 -13 74 -29 81 -36 6 -6 21 -15 32 -18 11 -3 20 -13 20 -21 0 -8 5 -14
11 -14 6 0 9 -9 6 -19 -6 -23 -24 -15 223 -101 305 -106 334 -120 455 -221 58
-49 103 -89 100 -89 -3 0 -41 24 -83 53 -121 85 -105 80 -333 83 -210 3 -449
24 -549 49 -111 28 -254 55 -291 55 -21 0 -87 16 -146 35 -59 19 -114 35 -120
35 -7 0 -13 5 -13 10 0 11 25 8 110 -9 66 -14 294 -20 306 -9 17 18 -65 86
-178 148 -20 11 -40 25 -44 31 -7 12 -145 79 -162 79 -5 0 -15 7 -23 16 -11
13 -9 15 12 9 13 -3 80 -18 148 -34 l125 -28 40 41 c51 51 93 86 98 81 2 -3
22 7 43 20 45 27 52 26 33 -5z m-5344 -50 c42 -19 70 -39 73 -51 3 -10 13 -19
22 -18 25 0 144 24 270 54 172 40 178 29 23 -45 l-134 -64 49 -17 c26 -9 62
-21 78 -27 17 -6 42 -13 58 -16 15 -4 27 -10 27 -14 0 -10 -79 -46 -155 -72
-103 -35 -519 -123 -640 -135 -61 -7 -404 -59 -618 -95 -64 -11 -143 -20 -175
-20 -43 0 -95 -13 -217 -55 -88 -31 -182 -63 -210 -71 -27 -9 -66 -21 -86 -27
-23 -8 -72 -45 -128 -99 -50 -48 -115 -103 -144 -121 -29 -19 -79 -60 -112
-92 -58 -55 -98 -80 -114 -71 -4 3 -36 -4 -70 -15 -35 -10 -67 -17 -72 -13 -5
3 -9 0 -9 -5 0 -6 -7 -11 -15 -11 -8 0 -41 -13 -73 -30 -33 -16 -64 -30 -69
-30 -6 0 -20 -9 -33 -20 -13 -11 -34 -20 -47 -20 -12 0 -23 -4 -23 -10 0 -5
-9 -10 -20 -10 -11 0 -20 -4 -20 -10 0 -5 -8 -10 -17 -10 -10 -1 -36 -9 -58
-20 -22 -10 -43 -16 -48 -13 -4 2 -14 -1 -22 -7 -8 -7 -19 -10 -25 -8 -10 3
445 227 687 338 89 41 94 46 143 116 64 93 80 104 192 144 51 17 109 38 128
45 19 8 123 45 230 84 294 105 558 203 727 269 135 53 157 65 200 109 62 63
119 81 187 58 42 -15 51 -14 163 11 65 15 124 30 131 33 8 5 -4 19 -35 43 -27
20 -61 51 -78 70 -16 18 -21 25 -10 16 11 -8 51 -30 89 -48z m2316 -415 c25
-134 41 -245 44 -302 1 -12 4 -25 9 -29 4 -4 7 -18 7 -32 0 -17 4 -23 15 -18
8 3 15 1 15 -5 0 -5 -7 -12 -15 -15 -11 -5 -13 -10 -5 -19 6 -7 8 -19 4 -28
-3 -8 0 -18 6 -22 8 -5 7 -10 -3 -18 -11 -9 -16 -49 -21 -164 l-6 -151 33 -11
c26 -9 42 -8 74 3 78 27 103 45 103 71 0 14 5 25 10 25 6 0 10 -5 10 -11 0 -8
5 -8 15 1 12 10 15 9 15 -4 0 -10 5 -14 10 -11 6 3 10 15 10 25 0 22 43 66 48
50 2 -5 13 -10 24 -10 12 0 26 -8 33 -17 10 -14 17 -15 36 -6 13 5 27 10 30 9
9 -2 34 27 42 48 4 10 2 25 -5 33 -10 12 -9 14 7 11 17 -3 20 4 22 46 1 27 -2
57 -7 67 -6 10 -6 20 -2 23 5 3 9 27 10 53 1 26 6 68 11 93 5 25 20 112 32
193 13 81 27 153 31 160 17 28 18 -10 4 -140 -33 -295 -47 -546 -30 -563 9 -9
109 17 419 108 77 22 151 42 164 44 13 2 27 10 32 18 4 8 26 53 48 100 92 191
225 313 420 387 52 20 75 23 115 17 l50 -6 -106 -52 c-193 -94 -320 -211 -399
-367 -40 -79 -38 -85 21 -92 27 -3 62 -13 77 -21 l28 -15 -43 -1 c-24 0 -57
-8 -75 -17 -18 -9 -42 -16 -55 -14 -27 3 -51 -14 -63 -47 -6 -15 -15 -22 -23
-19 -19 8 -116 -34 -116 -48 0 -7 -8 -19 -18 -28 -18 -16 -46 -17 -102 -2 -20
5 -32 -1 -58 -26 -38 -37 -37 -53 2 -57 39 -5 31 -38 -9 -35 -29 2 -55 -11
-55 -28 0 -14 34 -11 75 7 26 11 44 12 63 6 l27 -10 -29 -7 c-41 -11 -64 -34
-77 -75 -6 -19 -14 -44 -18 -55 -9 -22 -31 -116 -35 -153 -4 -31 -24 -51 -86
-87 -29 -16 -63 -39 -74 -51 -12 -12 -36 -29 -53 -38 -18 -9 -33 -21 -33 -26
0 -6 -11 -10 -24 -10 -14 0 -37 -11 -53 -24 -15 -13 -42 -32 -59 -42 -17 -11
-66 -40 -110 -66 -43 -27 -85 -48 -93 -48 -7 0 -20 -8 -27 -17 -13 -17 -13
-17 -14 0 0 9 -5 17 -11 17 -5 0 -8 -3 -6 -7 3 -5 1 -18 -4 -31 -7 -19 -14
-22 -43 -18 -22 3 -39 -1 -47 -10 -7 -9 -27 -13 -53 -12 -35 3 -41 0 -41 -16
0 -11 -5 -21 -12 -23 -7 -3 -9 -11 -6 -20 4 -11 2 -14 -8 -11 -8 3 -13 11 -11
17 3 15 -15 14 -20 0 -5 -16 -48 7 -48 25 0 16 -22 26 -56 26 -13 0 -24 5 -24
10 0 6 -5 10 -11 10 -11 0 -8 -25 7 -64 4 -11 0 -16 -14 -16 -11 0 -23 -7 -26
-16 -6 -15 -18 -16 -86 -11 -44 4 -89 11 -100 17 -26 14 -26 40 -1 40 11 0 22
4 25 9 3 5 26 12 51 16 38 5 45 9 40 24 -6 19 17 45 50 55 11 3 36 20 55 36
19 17 59 42 88 56 28 13 52 28 52 32 0 5 19 16 43 27 23 10 44 21 47 24 7 9
41 29 70 43 14 6 34 20 45 29 50 44 63 55 91 75 16 11 45 28 65 37 20 9 39 24
43 32 4 13 10 14 26 5 15 -8 18 -8 14 3 -5 13 20 28 51 31 6 1 16 9 23 18 12
17 103 63 154 78 22 7 26 5 21 -7 -5 -13 -1 -15 23 -9 16 4 37 7 48 7 14 0 17
6 14 24 -3 14 -1 22 3 19 5 -3 9 1 9 9 0 7 12 25 28 40 40 38 55 58 48 64 -3
3 -17 -2 -30 -11 -14 -9 -32 -16 -40 -16 -7 0 -16 -7 -20 -15 -3 -8 -10 -15
-16 -15 -5 0 -29 -13 -52 -30 -22 -17 -48 -30 -57 -30 -9 0 -27 -9 -41 -20
-14 -11 -31 -20 -38 -20 -7 0 -20 -7 -28 -15 -9 -8 -26 -15 -40 -15 -13 0 -24
-4 -24 -8 0 -4 -19 -18 -42 -30 -24 -12 -62 -35 -85 -50 -214 -138 -278 -177
-313 -195 -14 -6 -46 -26 -71 -44 -26 -18 -66 -42 -90 -52 -25 -11 -55 -31
-69 -45 -24 -27 -50 -34 -50 -15 0 25 54 119 69 119 16 1 86 102 105 153 9 24
8 30 -7 38 -9 6 -17 15 -17 21 0 7 5 6 15 -2 14 -12 19 -7 16 13 -1 5 3 6 9 2
6 -4 17 -1 25 5 8 6 18 9 24 6 17 -11 39 5 56 40 15 31 34 41 69 35 4 -1 15 6
23 16 8 10 12 12 8 6 -3 -7 -1 -13 5 -13 6 0 13 6 16 14 8 21 31 27 59 16 16
-6 25 -6 25 0 0 6 6 9 13 7 7 -1 11 6 9 18 -3 18 -2 18 13 -2 20 -28 39 -29
57 -4 7 10 22 21 33 24 21 7 57 39 80 72 14 20 14 20 28 0 12 -15 18 -17 29
-7 8 6 19 8 23 4 5 -4 6 -2 2 3 -16 30 51 67 123 69 25 0 50 6 55 12 18 21 58
24 71 6 11 -15 13 -15 23 10 5 14 14 29 20 32 6 4 8 13 4 21 -3 9 2 26 11 40
26 39 19 46 -24 24 -29 -15 -42 -30 -48 -52 -7 -28 -12 -32 -43 -32 -19 0 -39
-6 -45 -14 -7 -9 -36 -15 -85 -16 -48 -2 -91 -10 -122 -24 -27 -12 -55 -21
-64 -21 -8 0 -27 -13 -43 -29 -16 -16 -32 -26 -35 -23 -3 4 -3 -1 0 -10 4 -9
0 -18 -11 -22 -11 -4 -15 -2 -11 7 4 11 -3 13 -31 10 -66 -7 -194 -52 -207
-73 -7 -12 -53 -33 -125 -58 -30 -10 -86 -37 -125 -59 -150 -86 -241 -142
-268 -163 -16 -13 -36 -20 -47 -17 -12 3 -27 -5 -42 -20 -22 -24 -75 -53 -98
-53 -24 0 -7 29 27 45 55 26 77 46 148 137 26 33 41 59 35 63 -6 4 -8 10 -5
14 2 5 -4 16 -14 25 -14 13 -30 15 -70 11 -47 -4 -51 -3 -42 13 5 9 32 31 60
47 28 17 51 33 51 38 0 7 -30 11 -62 8 -10 -1 -18 3 -18 8 0 16 -21 13 -34 -5
-6 -8 -26 -16 -44 -16 -18 -1 -32 -4 -32 -7 0 -4 -12 -12 -27 -19 -16 -6 -43
-22 -62 -34 -23 -15 -32 -17 -29 -7 7 22 129 88 195 105 40 11 79 14 125 9
l67 -6 7 28 c4 15 14 36 22 46 10 11 11 17 4 17 -7 0 -12 11 -12 25 0 14 4 25
9 25 10 0 21 -24 21 -48 1 -24 65 -55 79 -38 11 14 11 56 -1 56 -4 0 -8 6 -8
13 0 15 -19 40 -72 95 -37 39 -73 44 -66 9 3 -17 -4 -31 -27 -50 -25 -21 -34
-38 -39 -73 -3 -27 -2 -52 4 -59 8 -10 -1 -13 -39 -13 l-50 0 21 52 c30 72 56
150 52 155 -9 10 -64 -44 -78 -76 -39 -87 -76 -131 -109 -128 -24 1 -87 -51
-87 -73 0 -7 -5 -10 -11 -7 -6 4 -13 -2 -16 -14 -5 -20 -100 -91 -122 -91 -17
0 -13 15 12 37 78 72 177 183 178 199 0 10 9 33 20 49 30 48 43 75 37 81 -3 3
-33 -8 -66 -24 -62 -30 -74 -30 -85 1 -10 26 -29 16 -48 -24 -17 -33 -18 -34
-85 -35 -40 -1 -70 -7 -72 -13 -2 -6 -9 -11 -15 -11 -13 0 -87 -75 -87 -88 0
-5 -11 -19 -25 -32 -13 -12 -22 -27 -19 -32 4 -6 -2 -22 -13 -36 -26 -36 -34
-60 -22 -64 6 -2 1 -14 -10 -27 -12 -13 -24 -21 -28 -17 -4 3 2 13 13 20 10 8
15 18 11 22 -4 5 -12 2 -17 -6 -5 -8 -12 -11 -16 -7 -4 3 -2 13 4 20 7 8 9 17
5 20 -3 4 -2 17 4 30 6 12 17 38 26 57 8 19 27 49 41 65 23 27 103 128 130
164 9 12 7 13 -6 8 -28 -10 -29 8 -3 33 35 33 18 40 -90 39 -102 -1 -186 -20
-253 -55 -25 -13 -52 -24 -61 -24 -36 0 -112 -64 -197 -166 -52 -63 -61 -79
-69 -137 -4 -26 -11 -49 -15 -52 -10 -6 -21 80 -13 102 20 53 138 203 160 203
4 0 19 16 31 35 13 19 47 52 75 73 51 38 55 39 177 50 69 7 232 11 362 10 150
-2 241 1 247 7 14 14 -13 102 -52 174 -100 185 -249 324 -429 399 -40 17 -86
37 -101 45 l-28 15 58 7 c51 6 68 3 128 -22 207 -84 328 -191 417 -368 14 -27
41 -96 59 -152 39 -117 33 -114 182 -106 50 3 108 0 133 -6 24 -6 64 -16 89
-22 24 -6 81 -36 127 -65 45 -30 86 -54 90 -54 22 0 4 331 -38 698 -14 126
-12 165 6 145 5 -4 13 -35 20 -68z m-2238 -189 c3 -25 20 -69 40 -102 64 -107
94 -169 90 -186 -4 -21 -18 -24 -25 -5 -3 6 -6 2 -6 -10 -1 -12 4 -34 10 -50
6 -15 13 -41 16 -58 2 -16 15 -73 29 -125 13 -52 24 -103 24 -114 0 -20 0 -20
-13 -1 -7 11 -19 38 -26 60 -7 22 -28 73 -47 113 -25 55 -37 72 -53 72 -12 0
-21 4 -21 9 0 5 -9 7 -20 4 -11 -3 -20 -9 -20 -13 0 -4 -11 -5 -25 -2 -14 2
-25 0 -25 -7 0 -6 -8 -10 -17 -9 -38 3 -53 -3 -54 -19 -1 -17 -2 -17 -6 0 -6
21 -10 21 -31 1 -11 -11 -17 -13 -20 -5 -2 6 -8 8 -14 5 -14 -9 -128 -12 -123
-3 4 6 -53 4 -157 -5 -21 -1 -38 1 -38 7 0 5 -6 4 -14 -2 -14 -12 -42 -11 -63
2 -8 5 -13 3 -13 -7 0 -20 -7 -20 -27 0 -13 12 -18 13 -24 3 -4 -8 -11 -10
-15 -6 -4 4 -13 2 -21 -4 -10 -9 -13 -7 -13 7 0 17 -1 17 -15 -2 -13 -17 -14
-17 -15 -2 0 10 -3 17 -7 16 -5 -1 -19 2 -33 6 -21 6 -35 27 -69 102 -53 114
-74 127 -52 31 7 -28 6 -35 -2 -29 -15 12 -117 3 -117 -11 0 -12 -47 -57 -53
-50 -12 11 -17 -39 -8 -74 5 -21 12 -68 16 -105 l7 -68 -29 0 c-20 0 -24 3
-14 9 12 8 11 20 -7 83 -12 40 -30 79 -39 86 -10 7 -12 12 -4 12 7 0 10 4 6 9
-3 5 -17 6 -33 2 -15 -5 -48 -7 -74 -6 -27 2 -48 -1 -48 -6 0 -4 -20 -7 -45
-5 -25 1 -45 -1 -45 -4 0 -4 -31 -12 -69 -19 -50 -9 -74 -19 -90 -37 -11 -13
-26 -24 -32 -24 -5 0 -7 -5 -3 -12 5 -8 2 -9 -9 -5 -9 3 -22 0 -29 -7 -7 -7
-26 -11 -41 -9 -16 2 -26 0 -23 -5 3 -5 -15 -13 -40 -19 -51 -12 -49 -7 22 43
105 74 183 123 274 174 52 28 113 71 135 95 34 36 58 49 155 84 63 23 121 41
128 41 8 0 29 -7 47 -16 31 -14 37 -14 111 10 125 40 227 63 404 91 90 14 166
28 169 30 2 3 -4 12 -15 19 -18 14 -18 15 6 24 33 13 193 37 266 41 30 1 32
-1 36 -43z m5303 23 c33 -6 75 -15 94 -21 31 -9 33 -12 18 -23 -33 -24 -25
-26 138 -50 149 -21 237 -40 384 -83 86 -25 126 -32 129 -24 2 6 18 14 35 17
28 5 138 -27 268 -79 8 -4 22 -19 31 -34 11 -18 61 -52 140 -96 134 -75 349
-218 413 -274 155 -137 302 -284 385 -387 54 -66 96 -122 94 -125 -3 -3 -10 3
-15 13 -14 24 -29 21 -28 -5 0 -13 3 -17 6 -11 3 10 8 9 19 -2 9 -8 12 -19 9
-25 -3 -5 -1 -10 4 -10 6 0 11 7 11 16 0 27 19 5 86 -99 37 -56 81 -124 99
-152 18 -27 32 -52 30 -54 -6 -5 -77 40 -105 67 -14 14 -18 21 -10 16 26 -15
38 -13 33 7 -3 10 -13 21 -23 24 -12 4 -16 12 -13 25 3 12 -1 22 -11 26 -9 3
-16 16 -16 28 0 11 -5 28 -11 36 -9 13 -10 13 -6 -1 3 -9 2 -22 -3 -29 -5 -8
-10 -2 -15 20 -5 23 -10 29 -18 21 -8 -8 -19 -2 -40 20 -21 24 -31 29 -40 20
-6 -6 -18 -11 -26 -11 -11 0 -9 6 9 20 25 20 25 20 3 20 -13 0 -23 -5 -23 -12
0 -6 -12 0 -27 14 -29 27 -62 33 -76 14 -4 -6 -5 1 -2 15 6 25 5 26 -29 24
-30 -3 -37 1 -48 26 -7 16 -16 29 -20 29 -12 0 -9 -17 5 -32 8 -7 12 -19 9
-27 -3 -8 0 -11 6 -7 6 3 13 2 17 -4 9 -15 -17 -12 -39 5 -10 8 -15 19 -10 26
5 9 2 10 -9 6 -25 -9 -47 2 -41 21 5 14 3 14 -9 -1 -18 -22 -40 -18 -106 20
-25 15 -42 20 -39 12 2 -7 13 -17 24 -23 10 -6 36 -21 56 -33 21 -13 44 -23
53 -23 19 0 19 -9 -1 -35 -14 -19 -15 -19 -12 -1 2 14 -4 19 -31 22 -27 3 -43
-3 -77 -29 -33 -26 -50 -33 -73 -29 -27 4 -29 6 -19 25 8 15 8 22 0 25 -6 2
-26 14 -44 27 -18 14 -43 29 -55 34 -13 6 -23 14 -23 19 0 10 -65 82 -74 82
-4 0 -1 -9 6 -19 9 -15 8 -22 -5 -36 -9 -9 -17 -23 -17 -32 0 -13 -8 -14 -47
-8 -50 8 -103 9 -110 1 -3 -2 1 -14 7 -27 11 -20 10 -21 -6 -13 -11 5 -50 8
-89 6 -151 -5 -189 -1 -195 22 -3 11 -11 21 -17 23 -21 7 -11 -90 10 -105 14
-11 15 -17 7 -27 -7 -8 -9 -19 -5 -25 3 -5 0 -10 -8 -10 -8 0 -14 8 -13 17 0
10 -8 19 -19 21 -11 2 -23 10 -28 17 -17 31 -124 5 -257 -62 -16 -8 -26 -9
-28 -3 -5 13 28 64 35 56 3 -3 19 12 35 34 16 21 38 42 48 45 13 4 20 16 20
33 1 15 9 36 18 47 20 23 74 55 93 55 7 0 21 -8 32 -17 19 -17 20 -17 8 5 -7
12 -9 27 -6 32 4 6 3 10 -2 9 -22 -4 -22 3 2 24 26 21 26 26 26 126 -1 74 -5
111 -16 127 -8 12 -10 24 -6 26 5 2 7 15 4 30 -3 17 -10 25 -19 21 -9 -3 -15
2 -16 13 -5 71 -19 135 -27 130 -4 -3 -16 9 -26 25 -11 16 -29 29 -40 30 -11
0 -15 3 -8 5 7 3 10 11 7 17 -2 7 5 39 16 71 23 69 23 66 10 66 -28 0 -164
-374 -187 -515 -6 -38 -12 -43 -24 -25 -8 12 -9 11 -7 -5 2 -11 8 -23 13 -27
6 -5 6 -8 -2 -8 -6 0 -15 5 -18 10 -3 6 -11 10 -16 10 -6 0 -7 -4 -4 -10 3 -5
2 -10 -3 -10 -13 0 -24 29 -16 41 3 6 -11 7 -35 4 -22 -2 -43 0 -46 5 -10 16
-25 12 -26 -7 -1 -17 -2 -17 -6 0 -5 20 -14 22 -31 5 -8 -8 -15 -8 -25 1 -12
9 -16 8 -21 -5 -5 -13 -9 -15 -18 -6 -16 16 -28 15 -28 -3 0 -8 -9 -15 -20
-15 -11 0 -20 -4 -20 -10 0 -14 -16 -12 -33 4 -8 8 -20 13 -28 12 -51 -10 -69
-20 -69 -37 0 -12 -6 -17 -20 -14 -13 3 -20 -2 -20 -12 0 -9 -6 -13 -15 -9
-18 6 -19 2 -4 -26 9 -18 9 -20 -4 -15 -9 3 -18 1 -21 -6 -3 -9 -8 -8 -16 3
-9 13 -11 12 -8 -5 2 -12 11 -19 21 -19 21 2 21 0 2 -19 -32 -32 -28 -60 17
-112 62 -73 201 -193 232 -201 14 -3 26 -10 26 -16 0 -5 -9 -6 -20 -3 -37 12
-20 -20 58 -108 28 -33 31 -41 20 -55 -11 -13 -11 -15 4 -9 19 7 43 -17 33
-33 -3 -5 -13 -10 -21 -10 -8 0 -14 -7 -14 -16 0 -14 -3 -14 -15 -4 -9 7 -15
8 -15 2 0 -19 27 -20 81 -2 40 14 49 20 37 25 -30 12 -20 25 17 25 19 0 35 4
35 9 0 5 10 7 23 4 21 -5 21 -5 3 9 -16 12 -16 17 -5 24 7 4 20 9 29 10 8 1
46 7 83 13 38 6 84 12 103 13 22 1 39 8 45 19 5 10 19 19 31 21 12 2 24 9 26
17 3 10 0 12 -12 8 -9 -4 -16 -1 -16 5 0 6 -7 5 -17 -5 -16 -14 -123 -47 -153
-47 -6 0 -10 8 -8 17 3 17 116 52 170 53 20 0 26 4 22 15 -7 17 7 20 22 5 6
-6 23 -5 47 2 30 9 40 9 46 -1 12 -18 62 -3 59 18 -2 11 4 16 22 16 14 0 31 4
38 8 7 5 12 4 12 -2 0 -5 -4 -13 -10 -16 -22 -14 -8 -21 35 -20 56 3 67 11 26
20 -17 4 -31 11 -31 16 0 6 8 8 18 5 10 -4 39 -2 64 3 26 4 50 5 55 1 7 -7
102 -17 186 -20 29 -2 19 -20 -11 -20 -16 0 -37 -9 -47 -20 -15 -16 -21 -18
-33 -7 -13 10 -14 9 -8 -1 12 -19 -24 -44 -42 -29 -11 9 -10 12 8 19 39 14 12
24 -57 21 -64 -3 -105 -19 -75 -30 17 -6 15 -23 -3 -23 -8 0 -15 4 -15 9 0 4
-32 8 -72 8 -67 1 -76 -2 -117 -33 -29 -23 -48 -31 -55 -25 -7 6 -17 6 -26 1
-8 -6 -30 -10 -49 -10 -24 0 -32 -4 -28 -14 4 -9 0 -12 -11 -10 -10 3 -36 -13
-62 -37 -25 -22 -55 -45 -68 -50 -35 -14 -22 -34 20 -31 20 2 38 -1 42 -6 3
-5 0 -9 -7 -9 -7 -1 -23 -2 -37 -3 -14 -1 -34 1 -45 5 -13 4 -27 -1 -40 -12
-11 -11 -29 -22 -39 -26 -18 -7 -16 -10 18 -31 l38 -23 -44 -2 c-23 -2 -51 -4
-60 -4 -10 -1 -18 -9 -18 -19 0 -10 0 -21 0 -25 0 -5 3 -8 8 -8 19 -1 100 -58
121 -86 26 -35 21 -51 -9 -24 -17 15 -20 16 -25 3 -4 -10 -20 -15 -46 -15 -22
0 -51 -6 -64 -13 -19 -10 -28 -10 -38 -1 -11 9 -17 8 -27 -4 -15 -18 -36 -20
-43 -2 -4 9 -7 9 -15 -1 -18 -26 -120 14 -185 72 -30 27 -37 40 -38 72 0 21
-3 33 -6 27 -5 -15 -43 -18 -43 -4 0 5 7 11 15 15 8 3 15 11 15 18 0 16 45 38
77 38 13 0 26 7 29 15 6 14 8 13 19 -2 8 -10 17 -15 20 -11 4 4 16 3 26 -3 23
-12 25 -3 4 17 -21 22 -19 39 7 51 21 9 20 10 -15 17 -42 8 -45 15 -18 40 18
17 18 66 -1 66 -5 0 -6 5 -2 11 9 14 -16 59 -33 59 -9 0 -12 -12 -9 -44 6 -61
-14 -78 -43 -38 -21 30 -31 74 -34 151 -3 63 -23 64 -29 1 -3 -28 -12 -56 -20
-63 -8 -7 -20 -25 -26 -42 -5 -16 -13 -39 -17 -50 -4 -11 -8 -33 -9 -50 -1
-19 -6 -30 -16 -30 -10 0 -14 9 -13 30 6 85 5 123 -2 149 -6 22 -5 27 5 21 9
-6 10 -3 1 13 -6 11 -11 40 -12 64 0 24 -4 52 -8 62 -6 16 -11 13 -34 -25 -29
-48 -62 -89 -71 -89 -13 0 -5 31 8 36 22 9 19 98 -5 127 -10 12 -18 16 -19 10
0 -7 -9 -13 -20 -13 -12 0 -31 -7 -44 -16 -16 -10 -26 -12 -31 -5 -9 16 4 33
23 28 10 -2 34 5 54 15 21 10 44 18 52 18 8 0 18 5 22 11 8 13 -16 31 -33 24
-8 -2 -10 2 -6 13 6 14 4 15 -9 5 -8 -7 -18 -10 -21 -6 -4 3 -13 1 -20 -5 -18
-16 -169 -21 -174 -6 -4 11 53 40 92 49 74 15 125 31 125 39 0 13 -81 1 -120
-17 -19 -10 -53 -17 -75 -16 -103 2 -168 -2 -187 -14 -16 -9 -22 -9 -25 0 -3
9 -13 6 -33 -9 l-29 -21 -33 25 c-18 14 -43 27 -56 31 -20 5 -22 3 -11 -11 7
-9 22 -24 32 -33 14 -11 16 -18 8 -23 -6 -4 -11 -2 -11 4 0 6 -4 9 -9 6 -5 -3
-14 1 -21 9 -8 10 -25 13 -56 10 -52 -6 -78 -19 -117 -63 -40 -44 -67 -58 -78
-41 -15 25 -9 53 16 78 14 13 25 27 25 31 0 13 -71 0 -102 -18 -25 -15 -27
-14 -52 15 -14 17 -39 36 -56 43 -54 22 -42 32 90 71 41 12 80 26 87 31 7 5
16 7 20 5 5 -3 26 3 47 14 22 10 51 19 66 19 31 0 68 24 53 33 -37 23 -281 28
-328 7 -16 -7 -33 -14 -37 -14 -16 -2 -20 -16 -4 -16 10 0 16 -6 14 -12 -7
-19 -49 -38 -84 -38 -17 0 -37 -7 -44 -15 -7 -9 -21 -13 -34 -9 -14 3 -28 -1
-35 -10 -8 -9 -21 -16 -31 -16 -26 0 -81 30 -74 41 7 13 45 27 87 34 18 3 48
10 67 15 19 6 53 10 75 11 22 1 32 3 23 6 -10 2 -18 8 -18 13 0 5 -15 12 -34
16 -19 3 -37 12 -40 20 -6 16 -62 19 -68 5 -5 -15 -55 -23 -160 -25 -93 -2
-136 -15 -122 -37 3 -5 -1 -6 -9 -3 -8 3 -18 1 -22 -5 -11 -18 -45 7 -45 32 0
13 6 30 13 39 12 16 118 39 172 38 43 -2 97 10 120 26 26 19 60 18 90 -2 14
-9 25 -13 25 -9 0 5 8 2 18 -6 10 -9 35 -14 62 -14 25 1 49 -3 53 -9 6 -8 10
-8 13 1 3 7 12 9 20 6 8 -3 14 1 14 10 0 20 -22 35 -28 19 -2 -7 -8 -12 -14
-12 -6 0 -4 8 6 18 18 21 5 22 251 -19 44 -7 90 -12 103 -12 12 1 22 -3 22 -7
0 -13 88 -30 170 -34 41 -2 65 -1 53 1 -14 3 -21 11 -20 23 1 10 4 18 7 18 21
-2 30 5 30 21 0 32 11 50 26 44 18 -7 18 11 1 26 -10 8 -17 7 -27 -2 -8 -6 -6
-2 4 11 11 12 16 22 12 22 -19 0 114 216 190 306 78 93 164 244 164 286 0 19
3 38 7 41 7 8 105 1 198 -14z m1740 -334 c133 -68 198 -110 222 -144 14 -20
13 -21 -25 -21 -32 0 -59 14 -153 76 -63 42 -141 88 -174 102 -73 31 -73 31
-55 42 29 19 61 9 185 -55z m-7718 -385 c57 -20 88 -41 105 -73 8 -16 7 -17
-9 -8 -25 13 -103 16 -173 6 -74 -10 -112 -7 -129 9 -17 17 -5 39 17 32 11 -4
29 6 47 24 36 35 66 37 142 10z m297 -191 c41 -16 67 -35 99 -73 58 -67 70
-91 62 -126 -5 -24 -1 -31 27 -51 41 -28 88 -70 88 -80 0 -4 -10 -9 -21 -12
-18 -5 -20 -11 -15 -32 5 -18 1 -36 -10 -54 -35 -53 -84 -80 -84 -45 0 8 -5
12 -11 8 -7 -4 -7 1 1 16 6 12 9 24 6 27 -3 4 -1 12 4 18 8 9 4 12 -14 10 -31
-4 -48 -14 -41 -25 3 -5 0 -12 -6 -15 -5 -4 -8 -13 -5 -21 8 -20 0 -17 -29 12
-14 14 -23 29 -19 33 4 3 9 0 11 -6 3 -7 12 -13 21 -13 15 0 15 2 1 15 -20 20
-57 27 -78 15 -14 -8 -14 -9 1 -10 9 0 19 -4 22 -9 3 -4 -6 -6 -19 -3 -20 3
-25 0 -25 -15 0 -11 -10 -32 -21 -47 -19 -24 -20 -30 -9 -52 8 -13 17 -24 22
-24 4 0 8 -7 8 -16 0 -9 5 -12 11 -8 19 11 1 -48 -21 -70 -18 -19 -20 -19 -38
-3 -10 9 -24 17 -30 17 -15 0 -16 17 -2 25 6 3 10 1 10 -4 0 -6 7 -11 16 -11
9 0 12 5 8 12 -4 6 1 17 10 24 47 34 -28 41 -84 7 -29 -16 -33 -17 -43 -2 -7
9 -19 14 -27 11 -12 -4 -13 -3 -3 10 7 8 14 27 15 42 2 25 37 70 39 50 1 -5 4
2 8 16 5 15 14 24 25 23 11 0 15 4 12 14 -4 9 -2 11 6 7 6 -4 17 1 24 11 8 11
19 15 30 11 14 -5 15 -4 4 9 -9 11 -9 15 -1 15 7 0 10 4 7 8 -3 4 12 17 32 27
32 17 62 37 108 74 5 4 20 14 32 20 12 6 22 16 22 22 0 5 -20 31 -45 57 -25
26 -45 52 -45 59 0 7 -4 13 -10 13 -5 0 -10 6 -10 13 0 6 -19 21 -41 32 -23
11 -45 30 -50 43 -10 27 -5 27 65 1z m910 -81 c-5 -7 -9 -24 -9 -37 -1 -23 0
-24 70 -17 38 4 94 11 123 15 40 6 52 4 52 -5 0 -8 -6 -11 -14 -8 -15 6 -56
-32 -56 -52 0 -7 -5 -16 -12 -20 -7 -5 -9 -2 -6 8 9 23 -50 21 -90 -3 -18 -10
-30 -14 -26 -7 5 8 2 9 -9 5 -10 -3 -17 -2 -17 3 0 14 -33 13 -47 -1 -9 -9 -6
-17 8 -32 14 -15 22 -18 30 -10 8 8 17 5 31 -9 17 -17 18 -22 7 -29 -11 -7
-12 -9 -1 -9 8 0 12 -6 9 -12 -2 -7 0 -21 5 -30 6 -12 5 -18 -2 -18 -6 0 -13
7 -16 15 -4 8 -11 15 -17 15 -7 0 -7 -4 1 -12 16 -16 15 -33 -1 -19 -10 8 -17
7 -25 -1 -17 -17 -16 14 1 31 10 11 9 13 -3 9 -8 -2 -17 -15 -20 -29 -5 -18
-13 -24 -31 -23 -13 1 -28 -4 -32 -10 -6 -8 -10 -7 -14 2 -2 6 -9 9 -15 6 -5
-3 -21 5 -35 17 -15 13 -24 19 -20 14 3 -6 -3 -11 -13 -11 -17 0 -17 3 -5 33
13 31 12 37 -7 34 -4 0 -5 6 -2 14 4 8 10 16 15 16 5 1 14 2 21 3 17 2 22 26
4 26 -23 0 -66 -18 -83 -35 -8 -9 -23 -13 -33 -10 -29 9 -40 -18 -38 -91 1
-38 -2 -76 -7 -84 -5 -8 -10 -20 -10 -26 0 -24 -61 -154 -70 -151 -5 2 -14 19
-20 39 -5 19 -16 42 -23 51 -8 9 -11 25 -7 37 4 12 2 20 -5 20 -6 0 -8 4 -5
10 3 5 -3 15 -14 22 -19 12 -19 12 1 51 14 28 17 42 9 50 -14 14 -53 -26 -50
-51 4 -27 -11 -80 -27 -92 -7 -7 -11 -16 -8 -21 3 -5 2 -9 -3 -9 -7 0 -14 -47
-17 -117 -1 -11 -4 -19 -8 -17 -9 6 -18 -41 -20 -109 0 -32 -4 -54 -9 -50 -23
25 -50 91 -51 124 0 24 -7 44 -19 55 -20 18 -27 6 -8 -13 15 -15 1 -36 -18
-29 -22 9 -63 -4 -63 -20 0 -8 -7 -14 -15 -14 -8 0 -15 -5 -15 -12 0 -18 -13
0 -17 22 -3 22 13 28 20 8 2 -7 8 -9 13 -5 5 4 2 12 -5 17 -19 11 -6 41 14 34
11 -4 14 -2 9 9 -3 10 5 20 24 29 27 14 31 13 57 -6 16 -11 26 -15 22 -9 -4 6
-3 14 2 17 5 3 7 14 4 25 -3 11 3 24 15 32 23 17 36 69 16 69 -7 0 -14 -6 -17
-12 -2 -7 -8 -9 -13 -5 -5 4 -3 11 3 15 6 4 14 24 18 45 4 20 11 37 16 37 5 0
9 7 9 15 0 9 8 18 18 22 9 3 25 13 34 21 10 8 27 12 38 9 15 -4 24 2 36 26
l17 31 -28 -18 c-29 -19 -41 -16 -32 8 13 32 102 66 194 72 92 6 178 24 251
51 43 16 72 52 72 90 0 12 3 14 11 6 7 -7 8 -17 3 -25z m1556 -16 c0 -5 -11
-19 -25 -32 -14 -13 -25 -28 -25 -34 0 -6 4 -5 8 2 5 8 16 10 27 6 14 -6 16
-4 10 6 -5 8 -4 11 2 7 7 -5 8 -20 3 -43 -10 -45 -19 -54 -32 -31 -9 17 -11
17 -24 -8 -8 -15 -14 -34 -14 -41 0 -10 -10 -13 -32 -12 -28 3 -34 -1 -36 -19
-2 -13 1 -23 6 -23 12 0 26 -105 17 -120 -5 -8 -11 -8 -20 0 -7 6 -20 8 -29 4
-19 -7 -20 -3 -5 30 9 20 9 29 -1 41 -17 20 -32 6 -36 -32 -7 -83 -54 -179
-54 -112 0 24 -16 16 -22 -11 -9 -41 -58 -51 -58 -12 0 11 -7 25 -15 32 -9 7
-14 19 -11 26 3 7 -2 18 -11 25 -10 9 -13 23 -10 45 4 26 1 34 -16 42 -21 10
-21 11 6 11 15 1 27 6 27 11 0 6 9 10 21 10 15 0 19 -5 14 -19 -3 -10 1 -24
10 -31 14 -11 12 -16 -10 -46 -17 -22 -21 -35 -14 -40 11 -6 48 31 49 49 0 5
20 33 45 64 25 30 45 58 45 62 0 3 27 33 61 66 33 33 77 77 96 98 35 36 53 46
53 29z m2714 -61 c7 -10 -101 -51 -134 -51 -13 0 -32 -7 -42 -17 -17 -15 -18
-15 -18 2 0 15 -5 14 -34 -9 -40 -30 -51 -33 -42 -10 4 12 -1 10 -23 -5 -16
-12 -36 -18 -45 -15 -9 3 -16 1 -16 -5 0 -6 -8 -11 -17 -11 -10 0 -27 -7 -37
-15 -11 -8 -30 -15 -42 -15 -13 0 -38 -9 -57 -20 -24 -14 -43 -18 -65 -14 -18
4 -32 10 -32 13 0 14 24 31 44 31 10 0 38 11 60 24 44 26 116 49 156 51 14 1
50 9 80 19 30 9 70 19 89 22 18 2 38 7 45 11 6 4 34 10 61 14 28 3 53 7 57 8
4 0 9 -3 12 -8z m-5142 -41 c35 -36 33 -49 -13 -72 -19 -10 -53 -34 -77 -54
-72 -62 -102 -73 -130 -46 -11 10 -17 10 -28 1 -8 -6 -11 -15 -9 -20 3 -4 3
-20 -1 -34 -7 -27 -29 -29 -29 -2 0 21 -11 31 -27 25 -7 -3 -17 -6 -21 -6 -13
-1 -67 -64 -67 -77 0 -16 -35 -55 -49 -55 -6 0 -11 6 -11 13 -1 6 -9 2 -19
-10 -22 -27 -31 -29 -31 -9 0 21 -21 31 -31 15 -5 -8 -9 -9 -9 -4 0 15 11 27
64 69 71 58 166 152 166 165 0 22 76 87 119 101 23 7 44 17 47 22 3 4 32 8 65
8 54 0 64 -3 91 -30z m3421 1 c-12 -10 -25 -36 -29 -57 -4 -21 -24 -71 -44
-110 -21 -39 -43 -88 -50 -109 -7 -21 -35 -59 -63 -87 -46 -45 -54 -49 -85
-43 -18 3 -40 9 -48 12 -23 9 -16 -11 8 -22 46 -21 28 -30 -57 -29 -78 1 -85
-1 -79 -18 3 -10 1 -18 -5 -18 -6 0 -10 -6 -9 -12 4 -18 -89 -12 -117 6 -13 9
-27 11 -35 6 -8 -5 -33 -6 -56 -3 -36 4 -44 2 -53 -16 -7 -12 -20 -21 -30 -21
-11 0 -22 -7 -25 -16 -4 -10 -15 -14 -33 -12 -14 2 -28 -2 -30 -8 -4 -13 109
-30 126 -20 5 4 13 2 16 -4 4 -7 11 -8 18 -1 16 13 77 -13 77 -33 0 -12 -20
-14 -137 -9 -76 3 -150 6 -165 5 -32 -1 -37 14 -8 23 11 3 20 11 20 16 0 5 7
12 16 16 9 3 33 23 53 45 20 21 41 38 46 38 6 0 22 11 37 25 15 14 31 25 36
25 5 0 19 11 32 25 13 14 28 25 33 25 5 0 26 14 47 30 21 17 41 30 44 30 4 0
29 17 56 38 42 32 173 117 348 226 26 16 56 37 67 47 18 16 46 25 85 27 10 1
8 -4 -7 -17z m-5372 -76 c5 3 6 -1 3 -9 -8 -22 19 -46 45 -39 34 9 25 -11 -26
-57 -27 -23 -63 -55 -81 -72 -60 -54 -198 -236 -251 -332 -28 -51 -63 -127
-77 -169 -18 -55 -35 -85 -58 -105 -19 -16 -39 -38 -45 -48 -12 -18 -12 -18
-7 1 27 106 57 182 120 310 75 154 259 448 325 520 34 37 36 39 39 17 2 -12 8
-20 13 -17z m8672 -216 c37 -6 67 -16 67 -21 0 -6 7 -7 16 -4 19 7 96 -29 124
-59 l20 -21 -30 -23 c-17 -12 -35 -19 -40 -16 -5 3 -17 1 -27 -4 -21 -11 -53
-24 -68 -27 -29 -6 -55 -17 -55 -25 0 -13 -90 -22 -113 -12 -12 6 -34 16 -48
23 -14 6 -51 13 -82 14 -60 2 -89 18 -80 44 4 15 3 15 -7 2 -9 -11 -13 -12
-17 -2 -2 6 -10 9 -15 6 -7 -4 -8 -2 -4 5 4 6 12 9 17 6 5 -4 9 -1 9 6 0 7
-10 9 -26 6 -18 -3 -33 2 -45 14 -21 21 -22 21 9 24 12 1 22 -3 22 -9 0 -6 6
-4 13 4 11 14 19 16 77 22 14 1 40 10 58 19 26 12 46 14 85 8 55 -9 68 -6 49
13 -17 17 -15 27 6 23 9 -2 47 -9 85 -16z m-1657 -111 c3 -4 -11 -11 -32 -17
-59 -16 -70 -26 -48 -40 11 -6 13 -11 7 -11 -19 0 -53 -32 -46 -43 4 -6 -5 -8
-21 -5 -14 3 -29 1 -32 -3 -3 -5 -12 -9 -20 -9 -8 0 -13 4 -9 9 12 20 -56 7
-72 -13 -15 -20 -15 -20 -9 12 3 17 2 32 -2 31 -18 -2 -96 -56 -100 -69 -3
-10 2 -9 18 5 16 14 24 16 27 8 3 -9 10 -10 24 -3 14 8 17 7 13 -4 -4 -10 5
-13 40 -12 25 0 46 5 46 11 0 5 5 4 12 -3 7 -7 20 -12 30 -12 10 0 18 5 18 12
0 9 3 9 12 0 7 -7 22 -12 35 -12 13 0 23 -5 23 -10 0 -7 -42 -9 -127 -5 -71 3
-149 6 -175 7 -27 0 -48 4 -48 8 0 3 -13 5 -30 2 -20 -3 -30 0 -30 8 0 9 -7 6
-21 -6 -15 -13 -23 -15 -26 -7 -2 7 -12 9 -21 6 -15 -6 -15 -5 -3 10 8 11 21
15 32 12 14 -5 22 0 28 18 10 26 31 45 31 28 0 -5 -4 -13 -10 -16 -5 -3 -10
-12 -10 -18 0 -7 13 3 29 22 23 27 37 34 67 35 24 1 39 6 42 16 5 13 3 13 -14
0 -18 -14 -18 -14 -5 3 17 22 43 23 34 1 -4 -12 -2 -15 8 -12 8 3 13 16 12 29
-1 13 1 18 3 12 7 -15 40 -17 49 -3 3 5 26 9 51 8 25 -2 48 2 52 7 4 6 22 11
40 12 27 1 31 -1 21 -13 -16 -19 -5 -18 31 4 29 18 63 22 76 10z m1487 -90
c20 -6 37 -14 37 -18 0 -12 -66 -40 -94 -40 -14 0 -26 -5 -26 -11 0 -6 -9 -9
-20 -6 -10 3 -20 1 -22 -3 -2 -5 -52 4 -113 20 -60 15 -120 26 -132 24 -17 -3
-21 -1 -16 11 3 10 15 15 32 13 14 -1 33 2 41 7 8 5 27 8 42 7 14 -1 29 2 32
6 7 12 193 4 239 -10z m340 -92 c18 -7 40 -19 48 -27 8 -8 28 -21 44 -29 32
-16 45 -54 26 -73 -6 -6 -11 -19 -11 -29 0 -23 -5 -23 -32 4 -15 15 -23 18
-26 9 -3 -9 -7 -9 -18 0 -11 9 -11 15 -3 25 9 11 8 14 -3 14 -25 0 -61 46 -53
69 4 15 2 21 -9 21 -10 0 -13 6 -10 15 7 18 7 18 47 1z m-1239 -113 c-7 -43
-15 -87 -19 -99 -5 -17 -1 -23 22 -33 30 -12 109 -83 136 -122 22 -30 22 -60
2 -53 -8 4 -15 12 -15 20 0 8 -4 14 -10 14 -5 0 -10 -4 -10 -10 0 -24 -31 -6
-52 30 -17 29 -29 40 -47 40 -20 0 -22 -3 -13 -12 7 -7 12 -20 12 -29 0 -19
-26 -33 -35 -19 -13 21 -30 8 -31 -22 0 -18 -3 -67 -7 -108 -5 -71 -5 -73 8
-37 16 48 24 55 35 37 12 -20 48 -21 46 -2 -2 26 18 23 37 -6 9 -15 26 -41 37
-58 l20 -30 -29 -21 c-26 -20 -31 -20 -56 -7 -22 11 -36 12 -58 5 -23 -9 -28
-8 -24 3 3 7 -1 13 -8 13 -7 0 -13 -10 -12 -21 0 -56 -33 -402 -47 -481 -8
-49 -18 -112 -21 -139 -10 -74 -23 -42 -28 67 -3 75 -1 99 9 105 8 4 16 28 19
52 3 25 8 59 11 75 3 17 7 51 7 77 1 27 6 48 10 48 5 0 6 4 3 9 -3 4 -1 35 4
67 6 32 12 102 15 154 8 158 17 235 29 243 8 5 7 10 -4 17 -13 9 -13 10 0 10
13 0 13 1 0 10 -13 9 -13 12 3 24 21 16 22 26 3 26 -11 0 -11 7 4 38 21 42 50
149 50 181 0 12 4 21 8 21 5 0 3 -35 -4 -77z m490 -70 c8 3 32 -3 54 -14 78
-39 81 -71 6 -63 l-46 6 6 -30 c8 -35 -5 -48 -55 -54 -27 -3 -35 0 -32 9 4 9
0 11 -12 7 -9 -4 -26 -2 -38 4 -49 23 -115 42 -144 42 -17 0 -40 3 -50 7 -16
6 -15 8 7 13 15 4 24 13 24 23 -2 19 21 23 32 5 5 -7 10 -3 16 13 9 22 10 23
22 7 12 -17 14 -17 31 2 16 18 20 19 35 5 22 -20 54 -20 46 0 -4 11 1 15 19
15 13 0 27 5 30 10 5 8 11 7 21 -1 7 -6 20 -9 28 -6z m214 -9 c31 -2 66 -8 77
-13 11 -5 36 -15 55 -22 54 -19 61 -27 48 -55 -8 -18 -14 -21 -24 -13 -9 7
-19 7 -33 0 -25 -14 -68 -14 -76 -1 -4 6 -10 8 -15 5 -5 -3 -14 3 -19 14 -6
10 -33 35 -61 55 -28 20 -48 41 -45 47 5 7 12 6 21 -2 8 -6 40 -13 72 -15z
m252 6 c22 -11 47 -20 56 -20 15 0 81 -43 94 -61 3 -4 25 -17 49 -29 36 -19
40 -25 26 -32 -10 -6 -21 -5 -31 2 -7 7 -14 9 -14 5 0 -4 -6 -3 -13 3 -13 11
-88 12 -81 0 6 -9 -7 -38 -17 -38 -5 0 -15 15 -22 33 -18 41 -65 97 -82 97
-16 0 -23 18 -17 43 5 21 4 21 52 -3z m-8546 -586 c9 -8 14 -20 11 -25 -3 -5
-1 -26 6 -48 14 -47 5 -91 -18 -91 -12 0 -3 -13 26 -39 27 -25 39 -41 31 -46
-13 -8 -40 12 -40 31 0 21 -18 17 -31 -8 l-11 -21 -19 24 c-10 13 -19 18 -19
12 0 -7 -4 -13 -9 -13 -9 0 -6 81 4 109 4 11 10 10 30 -3 29 -19 47 -21 22 -2
-10 8 -16 20 -15 27 2 8 -2 13 -8 12 -7 -1 -10 6 -7 17 3 11 10 20 15 20 5 0
6 5 2 11 -3 6 0 15 7 20 10 6 11 9 2 9 -7 0 -13 5 -13 10 0 15 16 12 34 -6z
m-45 -346 c6 -17 4 -28 -8 -42 -9 -11 -11 -16 -4 -13 6 4 14 1 16 -5 4 -8 8
-4 12 9 4 13 12 20 18 16 5 -3 17 3 25 13 14 18 14 18 9 -3 -4 -16 -1 -20 11
-16 9 4 13 2 9 -4 -6 -10 12 -67 33 -106 8 -12 7 -16 -2 -15 -7 2 -12 -3 -10
-11 2 -8 0 -21 -3 -30 -5 -13 -7 -14 -15 -1 -8 13 -10 12 -10 -3 0 -14 5 -17
21 -12 16 5 20 3 18 -12 -2 -10 0 -23 4 -29 10 -17 -4 -77 -15 -66 -6 6 -6 18
2 32 6 12 9 24 6 28 -3 3 -6 1 -6 -5 0 -6 -6 -13 -14 -16 -9 -4 -12 2 -11 18
2 12 -6 30 -16 39 -10 8 -19 12 -20 8 0 -4 -5 4 -10 17 -5 13 -7 33 -3 44 4
14 3 17 -6 12 -9 -5 -11 -4 -6 4 10 15 -13 43 -27 34 -6 -4 -8 0 -4 10 3 10 2
17 -2 17 -13 0 -23 30 -26 73 -3 42 20 52 34 15z"/>
</g>
</svg>
